REM DIRINDEX 1\2,1\3,1\4,1\5
REM DIRNAME "folder01","folder02","folder03","folder04","folder05"
TITLE ""
FILE "1Q_t_0259-0268.mp3" MP3
  TRACK 01 AUDIO
    TITLE "3:cjc172_1695"
    INDEX 01 00:00:00
  TRACK 02 AUDIO
    TITLE "0:"
    INDEX 01 00:01:27
  TRACK 03 AUDIO
    TITLE "4:cjc172_1696"
    INDEX 01 00:01:43
  TRACK 04 AUDIO
    TITLE "0:"
    INDEX 01 00:03:38
  TRACK 05 AUDIO
    TITLE "5:cjc172_1697"
    INDEX 01 00:03:52
  TRACK 06 AUDIO
    TITLE "0:"
    INDEX 01 00:09:66
  TRACK 07 AUDIO
    TITLE "3:cjc172_1698"
    INDEX 01 00:10:42
  TRACK 08 AUDIO
    TITLE "0:"
    INDEX 01 00:11:65
  TRACK 09 AUDIO
    TITLE "4:cjc172_1699"
    INDEX 01 00:12:06
  TRACK 10 AUDIO
    TITLE "0:"
    INDEX 01 00:14:12
  TRACK 11 AUDIO
    TITLE "5:cjc172_1700"
    INDEX 01 00:14:26
  TRACK 12 AUDIO
    TITLE "0:"
    INDEX 01 00:19:19
  TRACK 13 AUDIO
    TITLE "3:cjc172_1701"
    INDEX 01 00:19:72
  TRACK 14 AUDIO
    TITLE "0:"
    INDEX 01 00:21:18
  TRACK 15 AUDIO
    TITLE "4:cjc172_1702"
    INDEX 01 00:21:36
  TRACK 16 AUDIO
    TITLE "0:"
    INDEX 01 00:24:48
  TRACK 17 AUDIO
    TITLE "5:cjc172_1703"
    INDEX 01 00:24:62
  TRACK 18 AUDIO
    TITLE "0:"
    INDEX 01 00:31:21
  TRACK 19 AUDIO
    TITLE "3:cjc172_1704"
    INDEX 01 00:32:02
  TRACK 20 AUDIO
    TITLE "0:"
    INDEX 01 00:33:12
  TRACK 21 AUDIO
    TITLE "4:cjc172_1705"
    INDEX 01 00:33:29
  TRACK 22 AUDIO
    TITLE "0:"
    INDEX 01 00:35:44
  TRACK 23 AUDIO
    TITLE "5:cjc172_1706"
    INDEX 01 00:35:58
  TRACK 24 AUDIO
    TITLE "0:"
    INDEX 01 00:42:26
  TRACK 25 AUDIO
    TITLE "3:cjc172_1707"
    INDEX 01 00:43:02
  TRACK 26 AUDIO
    TITLE "0:"
    INDEX 01 00:44:29
  TRACK 27 AUDIO
    TITLE "4:cjc172_1708"
    INDEX 01 00:44:47
  TRACK 28 AUDIO
    TITLE "0:"
    INDEX 01 00:45:50
  TRACK 29 AUDIO
    TITLE "5:cjc172_1709"
    INDEX 01 00:45:64
  TRACK 30 AUDIO
    TITLE "0:"
    INDEX 01 00:51:39
  TRACK 31 AUDIO
    TITLE "3:cjc172_1710"
    INDEX 01 00:52:17
  TRACK 32 AUDIO
    TITLE "0:"
    INDEX 01 00:53:14
  TRACK 33 AUDIO
    TITLE "4:cjc172_1711"
    INDEX 01 00:53:30
  TRACK 34 AUDIO
    TITLE "0:"
    INDEX 01 00:54:71
  TRACK 35 AUDIO
    TITLE "5:cjc172_1712"
    INDEX 01 00:55:09
  TRACK 36 AUDIO
    TITLE "0:"
    INDEX 01 01:01:30
  TRACK 37 AUDIO
    TITLE "3:cjc172_1713"
    INDEX 01 01:02:07
  TRACK 38 AUDIO
    TITLE "0:"
    INDEX 01 01:03:25
  TRACK 39 AUDIO
    TITLE "4:cjc172_1714"
    INDEX 01 01:03:42
  TRACK 40 AUDIO
    TITLE "0:"
    INDEX 01 01:05:43
  TRACK 41 AUDIO
    TITLE "5:cjc172_1715"
    INDEX 01 01:05:57
  TRACK 42 AUDIO
    TITLE "0:"
    INDEX 01 01:13:56
  TRACK 43 AUDIO
    TITLE "3:cjc172_1716"
    INDEX 01 01:14:34
  TRACK 44 AUDIO
    TITLE "0:"
    INDEX 01 01:15:55
  TRACK 45 AUDIO
    TITLE "4:cjc172_1717"
    INDEX 01 01:15:69
  TRACK 46 AUDIO
    TITLE "0:"
    INDEX 01 01:16:68
  TRACK 47 AUDIO
    TITLE "5:cjc172_1718"
    INDEX 01 01:17:07
  TRACK 48 AUDIO
    TITLE "0:"
    INDEX 01 01:23:21
  TRACK 49 AUDIO
    TITLE "3:cjc172_1719"
    INDEX 01 01:24:01
  TRACK 50 AUDIO
    TITLE "0:"
    INDEX 01 01:25:30
  TRACK 51 AUDIO
    TITLE "4:cjc172_1720"
    INDEX 01 01:25:48
  TRACK 52 AUDIO
    TITLE "0:"
    INDEX 01 01:29:51
  TRACK 53 AUDIO
    TITLE "5:cjc172_1721"
    INDEX 01 01:29:67
  TRACK 54 AUDIO
    TITLE "0:"
    INDEX 01 01:35:62
  TRACK 55 AUDIO
    TITLE "3:cjc172_1722"
    INDEX 01 01:36:42
  TRACK 56 AUDIO
    TITLE "0:"
    INDEX 01 01:37:53
  TRACK 57 AUDIO
    TITLE "4:cjc172_1723"
    INDEX 01 01:37:67
  TRACK 58 AUDIO
    TITLE "0:"
    INDEX 01 01:40:71
  TRACK 59 AUDIO
    TITLE "5:cjc172_1724"
    INDEX 01 01:41:10
  TRACK 60 AUDIO
    TITLE "0:"
    INDEX 01 01:47:18
